<svg id="3a034d6f-5efd-45ac-bc52-48747b44755d" data-name="3e16d55f-1819-4c83-bf0c-7c2878d154e7" xmlns="http://www.w3.org/2000/svg" viewBox="0 0 827.6 151.4"><defs><style>.f1354c13-2be7-46b8-a722-eebb6cbd0ad5{fill:#fff;}</style></defs><title>ryder_emblem_</title><path class="f1354c13-2be7-46b8-a722-eebb6cbd0ad5" d="M703.8,99.2l69-38.2H536.6c-1.1-7.7-2.8-12.2-5.2-19.4H763.8L827.6,0H459a85.4,85.4,0,0,1,37,42.7H439.6L431.7,16,397,30l-4.9,12.7h-55A85.4,85.4,0,0,1,374,0H0L65.2,42.2H297.4c-2.3,7.2-4,11.7-5,19.4H56.2l69,38.2H290.1a155.2,155.2,0,0,1,7.8,17.7H115.4l59.8,33.9H380.8a85,85,0,0,1-8.1-4.3l43.2-31.4,43.9,31.9q-3.6,2.1-7.3,3.8H652.7l60.8-34.5H531.4a165.9,165.9,0,0,1,7.5-17.7H703.8ZM361,138.7a85.2,85.2,0,0,1-27.8-83.1l44.3,32.2Zm58.5-41.6-6.6,3.2H402.6l15.3-33.1H405.7l-5.4-4.1-4-7.3h34.8l6.7,4Zm51.6,42.6h0L454.2,87.8l45.5-33.1A84.7,84.7,0,0,1,471.1,139.7Z"/></svg>